<?xml version="1.0" encoding="utf-8" standalone="no"?>
<!DOCTYPE svg PUBLIC "-//W3C//DTD SVG 1.1//EN"
  "http://www.w3.org/Graphics/SVG/1.1/DTD/svg11.dtd">
<svg xmlns:xlink="http://www.w3.org/1999/xlink" width="460.8pt" height="345.6pt" viewBox="0 0 460.8 345.6" xmlns="http://www.w3.org/2000/svg" version="1.1">
 <metadata>
  <rdf:RDF xmlns:dc="http://purl.org/dc/elements/1.1/" xmlns:cc="http://creativecommons.org/ns#" xmlns:rdf="http://www.w3.org/1999/02/22-rdf-syntax-ns#">
   <cc:Work>
    <dc:type rdf:resource="http://purl.org/dc/dcmitype/StillImage"/>
    <dc:date>2025-01-29T00:39:42.134172</dc:date>
    <dc:format>image/svg+xml</dc:format>
    <dc:creator>
     <cc:Agent>
      <dc:title>Matplotlib v3.9.2, https://matplotlib.org/</dc:title>
     </cc:Agent>
    </dc:creator>
   </cc:Work>
  </rdf:RDF>
 </metadata>
 <defs>
  <style type="text/css">*{stroke-linejoin: round; stroke-linecap: butt}</style>
 </defs>
 <g id="figure_1">
  <g id="patch_1">
   <path d="M 0 345.6 
L 460.8 345.6 
L 460.8 0 
L 0 0 
z
" style="fill: #ffffff"/>
  </g>
  <g id="axes_1">
   <g id="patch_2">
    <path d="M 53.03 303.64 
L 450 303.64 
L 450 10.8 
L 53.03 10.8 
z
" style="fill: #ffffff"/>
   </g>
   <g id="patch_3">
    <path d="M 381.729812 303.64 
L 431.955909 303.64 
L 431.955909 10.8 
L 381.729812 10.8 
z
" clip-path="url(#p9089345fac)" style="fill: #ff0000; opacity: 0.5; stroke: #ff0000; stroke-linejoin: miter"/>
   </g>
   <g id="patch_4">
    <path d="M 71.074091 303.64 
L 165.200721 303.64 
L 165.200721 10.8 
L 71.074091 10.8 
z
" clip-path="url(#p9089345fac)" style="fill: #ff0000; opacity: 0.5; stroke: #ff0000; stroke-linejoin: miter"/>
   </g>
   <g id="matplotlib.axis_1">
    <g id="xtick_1">
     <g id="line2d_1">
      <path d="M 121.894903 303.64 
L 121.894903 10.8 
" clip-path="url(#p9089345fac)" style="fill: none; stroke: #b0b0b0; stroke-width: 0.8; stroke-linecap: square"/>
     </g>
     <g id="line2d_2">
      <defs>
       <path id="ma5b043b635" d="M 0 0 
L 0 3.5 
" style="stroke: #000000; stroke-width: 0.8"/>
      </defs>
      <g>
       <use xlink:href="#ma5b043b635" x="121.894903" y="303.64" style="stroke: #000000; stroke-width: 0.8"/>
      </g>
     </g>
     <g id="text_1">
      <!-- −10 -->
      <g transform="translate(111.342559 318.238437) scale(0.1 -0.1)">
       <defs>
        <path id="DejaVuSans-2212" d="M 678 2272 
L 4684 2272 
L 4684 1741 
L 678 1741 
L 678 2272 
z
" transform="scale(0.015625)"/>
        <path id="DejaVuSans-31" d="M 794 531 
L 1825 531 
L 1825 4091 
L 703 3866 
L 703 4441 
L 1819 4666 
L 2450 4666 
L 2450 531 
L 3481 531 
L 3481 0 
L 794 0 
L 794 531 
z
" transform="scale(0.015625)"/>
        <path id="DejaVuSans-30" d="M 2034 4250 
Q 1547 4250 1301 3770 
Q 1056 3291 1056 2328 
Q 1056 1369 1301 889 
Q 1547 409 2034 409 
Q 2525 409 2770 889 
Q 3016 1369 3016 2328 
Q 3016 3291 2770 3770 
Q 2525 4250 2034 4250 
z
M 2034 4750 
Q 2819 4750 3233 4129 
Q 3647 3509 3647 2328 
Q 3647 1150 3233 529 
Q 2819 -91 2034 -91 
Q 1250 -91 836 529 
Q 422 1150 422 2328 
Q 422 3509 836 4129 
Q 1250 4750 2034 4750 
z
" transform="scale(0.015625)"/>
       </defs>
       <use xlink:href="#DejaVuSans-2212"/>
       <use xlink:href="#DejaVuSans-31" x="83.789062"/>
       <use xlink:href="#DejaVuSans-30" x="147.412109"/>
      </g>
     </g>
    </g>
    <g id="xtick_2">
     <g id="line2d_3">
      <path d="M 194.071267 303.64 
L 194.071267 10.8 
" clip-path="url(#p9089345fac)" style="fill: none; stroke: #b0b0b0; stroke-width: 0.8; stroke-linecap: square"/>
     </g>
     <g id="line2d_4">
      <g>
       <use xlink:href="#ma5b043b635" x="194.071267" y="303.64" style="stroke: #000000; stroke-width: 0.8"/>
      </g>
     </g>
     <g id="text_2">
      <!-- −5 -->
      <g transform="translate(186.700173 318.238437) scale(0.1 -0.1)">
       <defs>
        <path id="DejaVuSans-35" d="M 691 4666 
L 3169 4666 
L 3169 4134 
L 1269 4134 
L 1269 2991 
Q 1406 3038 1543 3061 
Q 1681 3084 1819 3084 
Q 2600 3084 3056 2656 
Q 3513 2228 3513 1497 
Q 3513 744 3044 326 
Q 2575 -91 1722 -91 
Q 1428 -91 1123 -41 
Q 819 9 494 109 
L 494 744 
Q 775 591 1075 516 
Q 1375 441 1709 441 
Q 2250 441 2565 725 
Q 2881 1009 2881 1497 
Q 2881 1984 2565 2268 
Q 2250 2553 1709 2553 
Q 1456 2553 1204 2497 
Q 953 2441 691 2322 
L 691 4666 
z
" transform="scale(0.015625)"/>
       </defs>
       <use xlink:href="#DejaVuSans-2212"/>
       <use xlink:href="#DejaVuSans-35" x="83.789062"/>
      </g>
     </g>
    </g>
    <g id="xtick_3">
     <g id="line2d_5">
      <path d="M 266.24763 303.64 
L 266.24763 10.8 
" clip-path="url(#p9089345fac)" style="fill: none; stroke: #b0b0b0; stroke-width: 0.8; stroke-linecap: square"/>
     </g>
     <g id="line2d_6">
      <g>
       <use xlink:href="#ma5b043b635" x="266.24763" y="303.64" style="stroke: #000000; stroke-width: 0.8"/>
      </g>
     </g>
     <g id="text_3">
      <!-- 0 -->
      <g transform="translate(263.06638 318.238437) scale(0.1 -0.1)">
       <use xlink:href="#DejaVuSans-30"/>
      </g>
     </g>
    </g>
    <g id="xtick_4">
     <g id="line2d_7">
      <path d="M 338.423994 303.64 
L 338.423994 10.8 
" clip-path="url(#p9089345fac)" style="fill: none; stroke: #b0b0b0; stroke-width: 0.8; stroke-linecap: square"/>
     </g>
     <g id="line2d_8">
      <g>
       <use xlink:href="#ma5b043b635" x="338.423994" y="303.64" style="stroke: #000000; stroke-width: 0.8"/>
      </g>
     </g>
     <g id="text_4">
      <!-- 5 -->
      <g transform="translate(335.242744 318.238437) scale(0.1 -0.1)">
       <use xlink:href="#DejaVuSans-35"/>
      </g>
     </g>
    </g>
    <g id="xtick_5">
     <g id="line2d_9">
      <path d="M 410.600357 303.64 
L 410.600357 10.8 
" clip-path="url(#p9089345fac)" style="fill: none; stroke: #b0b0b0; stroke-width: 0.8; stroke-linecap: square"/>
     </g>
     <g id="line2d_10">
      <g>
       <use xlink:href="#ma5b043b635" x="410.600357" y="303.64" style="stroke: #000000; stroke-width: 0.8"/>
      </g>
     </g>
     <g id="text_5">
      <!-- 10 -->
      <g transform="translate(404.237857 318.238437) scale(0.1 -0.1)">
       <use xlink:href="#DejaVuSans-31"/>
       <use xlink:href="#DejaVuSans-30" x="63.623047"/>
      </g>
     </g>
    </g>
    <g id="text_6">
     <!-- SNR [dB] -->
     <g transform="translate(229.030625 331.916562) scale(0.1 -0.1)">
      <defs>
       <path id="DejaVuSans-53" d="M 3425 4513 
L 3425 3897 
Q 3066 4069 2747 4153 
Q 2428 4238 2131 4238 
Q 1616 4238 1336 4038 
Q 1056 3838 1056 3469 
Q 1056 3159 1242 3001 
Q 1428 2844 1947 2747 
L 2328 2669 
Q 3034 2534 3370 2195 
Q 3706 1856 3706 1288 
Q 3706 609 3251 259 
Q 2797 -91 1919 -91 
Q 1588 -91 1214 -16 
Q 841 59 441 206 
L 441 856 
Q 825 641 1194 531 
Q 1563 422 1919 422 
Q 2459 422 2753 634 
Q 3047 847 3047 1241 
Q 3047 1584 2836 1778 
Q 2625 1972 2144 2069 
L 1759 2144 
Q 1053 2284 737 2584 
Q 422 2884 422 3419 
Q 422 4038 858 4394 
Q 1294 4750 2059 4750 
Q 2388 4750 2728 4690 
Q 3069 4631 3425 4513 
z
" transform="scale(0.015625)"/>
       <path id="DejaVuSans-4e" d="M 628 4666 
L 1478 4666 
L 3547 763 
L 3547 4666 
L 4159 4666 
L 4159 0 
L 3309 0 
L 1241 3903 
L 1241 0 
L 628 0 
L 628 4666 
z
" transform="scale(0.015625)"/>
       <path id="DejaVuSans-52" d="M 2841 2188 
Q 3044 2119 3236 1894 
Q 3428 1669 3622 1275 
L 4263 0 
L 3584 0 
L 2988 1197 
Q 2756 1666 2539 1819 
Q 2322 1972 1947 1972 
L 1259 1972 
L 1259 0 
L 628 0 
L 628 4666 
L 2053 4666 
Q 2853 4666 3247 4331 
Q 3641 3997 3641 3322 
Q 3641 2881 3436 2590 
Q 3231 2300 2841 2188 
z
M 1259 4147 
L 1259 2491 
L 2053 2491 
Q 2509 2491 2742 2702 
Q 2975 2913 2975 3322 
Q 2975 3731 2742 3939 
Q 2509 4147 2053 4147 
L 1259 4147 
z
" transform="scale(0.015625)"/>
       <path id="DejaVuSans-20" transform="scale(0.015625)"/>
       <path id="DejaVuSans-5b" d="M 550 4863 
L 1875 4863 
L 1875 4416 
L 1125 4416 
L 1125 -397 
L 1875 -397 
L 1875 -844 
L 550 -844 
L 550 4863 
z
" transform="scale(0.015625)"/>
       <path id="DejaVuSans-64" d="M 2906 2969 
L 2906 4863 
L 3481 4863 
L 3481 0 
L 2906 0 
L 2906 525 
Q 2725 213 2448 61 
Q 2172 -91 1784 -91 
Q 1150 -91 751 415 
Q 353 922 353 1747 
Q 353 2572 751 3078 
Q 1150 3584 1784 3584 
Q 2172 3584 2448 3432 
Q 2725 3281 2906 2969 
z
M 947 1747 
Q 947 1113 1208 752 
Q 1469 391 1925 391 
Q 2381 391 2643 752 
Q 2906 1113 2906 1747 
Q 2906 2381 2643 2742 
Q 2381 3103 1925 3103 
Q 1469 3103 1208 2742 
Q 947 2381 947 1747 
z
" transform="scale(0.015625)"/>
       <path id="DejaVuSans-42" d="M 1259 2228 
L 1259 519 
L 2272 519 
Q 2781 519 3026 730 
Q 3272 941 3272 1375 
Q 3272 1813 3026 2020 
Q 2781 2228 2272 2228 
L 1259 2228 
z
M 1259 4147 
L 1259 2741 
L 2194 2741 
Q 2656 2741 2882 2914 
Q 3109 3088 3109 3444 
Q 3109 3797 2882 3972 
Q 2656 4147 2194 4147 
L 1259 4147 
z
M 628 4666 
L 2241 4666 
Q 2963 4666 3353 4366 
Q 3744 4066 3744 3513 
Q 3744 3084 3544 2831 
Q 3344 2578 2956 2516 
Q 3422 2416 3680 2098 
Q 3938 1781 3938 1306 
Q 3938 681 3513 340 
Q 3088 0 2303 0 
L 628 0 
L 628 4666 
z
" transform="scale(0.015625)"/>
       <path id="DejaVuSans-5d" d="M 1947 4863 
L 1947 -844 
L 622 -844 
L 622 -397 
L 1369 -397 
L 1369 4416 
L 622 4416 
L 622 4863 
L 1947 4863 
z
" transform="scale(0.015625)"/>
      </defs>
      <use xlink:href="#DejaVuSans-53"/>
      <use xlink:href="#DejaVuSans-4e" x="63.476562"/>
      <use xlink:href="#DejaVuSans-52" x="138.28125"/>
      <use xlink:href="#DejaVuSans-20" x="207.763672"/>
      <use xlink:href="#DejaVuSans-5b" x="239.550781"/>
      <use xlink:href="#DejaVuSans-64" x="278.564453"/>
      <use xlink:href="#DejaVuSans-42" x="342.041016"/>
      <use xlink:href="#DejaVuSans-5d" x="410.644531"/>
     </g>
    </g>
   </g>
   <g id="matplotlib.axis_2">
    <g id="ytick_1">
     <g id="line2d_11">
      <path d="M 53.03 295.101358 
L 450 295.101358 
" clip-path="url(#p9089345fac)" style="fill: none; stroke: #b0b0b0; stroke-width: 0.8; stroke-linecap: square"/>
     </g>
     <g id="line2d_12">
      <defs>
       <path id="mf4626c89bf" d="M 0 0 
L -3.5 0 
" style="stroke: #000000; stroke-width: 0.8"/>
      </defs>
      <g>
       <use xlink:href="#mf4626c89bf" x="53.03" y="295.101358" style="stroke: #000000; stroke-width: 0.8"/>
      </g>
     </g>
     <g id="text_7">
      <!-- −18 -->
      <g transform="translate(24.925313 298.900576) scale(0.1 -0.1)">
       <defs>
        <path id="DejaVuSans-38" d="M 2034 2216 
Q 1584 2216 1326 1975 
Q 1069 1734 1069 1313 
Q 1069 891 1326 650 
Q 1584 409 2034 409 
Q 2484 409 2743 651 
Q 3003 894 3003 1313 
Q 3003 1734 2745 1975 
Q 2488 2216 2034 2216 
z
M 1403 2484 
Q 997 2584 770 2862 
Q 544 3141 544 3541 
Q 544 4100 942 4425 
Q 1341 4750 2034 4750 
Q 2731 4750 3128 4425 
Q 3525 4100 3525 3541 
Q 3525 3141 3298 2862 
Q 3072 2584 2669 2484 
Q 3125 2378 3379 2068 
Q 3634 1759 3634 1313 
Q 3634 634 3220 271 
Q 2806 -91 2034 -91 
Q 1263 -91 848 271 
Q 434 634 434 1313 
Q 434 1759 690 2068 
Q 947 2378 1403 2484 
z
M 1172 3481 
Q 1172 3119 1398 2916 
Q 1625 2713 2034 2713 
Q 2441 2713 2670 2916 
Q 2900 3119 2900 3481 
Q 2900 3844 2670 4047 
Q 2441 4250 2034 4250 
Q 1625 4250 1398 4047 
Q 1172 3844 1172 3481 
z
" transform="scale(0.015625)"/>
       </defs>
       <use xlink:href="#DejaVuSans-2212"/>
       <use xlink:href="#DejaVuSans-31" x="83.789062"/>
       <use xlink:href="#DejaVuSans-38" x="147.412109"/>
      </g>
     </g>
    </g>
    <g id="ytick_2">
     <g id="line2d_13">
      <path d="M 53.03 249.766295 
L 450 249.766295 
" clip-path="url(#p9089345fac)" style="fill: none; stroke: #b0b0b0; stroke-width: 0.8; stroke-linecap: square"/>
     </g>
     <g id="line2d_14">
      <g>
       <use xlink:href="#mf4626c89bf" x="53.03" y="249.766295" style="stroke: #000000; stroke-width: 0.8"/>
      </g>
     </g>
     <g id="text_8">
      <!-- −17 -->
      <g transform="translate(24.925313 253.565513) scale(0.1 -0.1)">
       <defs>
        <path id="DejaVuSans-37" d="M 525 4666 
L 3525 4666 
L 3525 4397 
L 1831 0 
L 1172 0 
L 2766 4134 
L 525 4134 
L 525 4666 
z
" transform="scale(0.015625)"/>
       </defs>
       <use xlink:href="#DejaVuSans-2212"/>
       <use xlink:href="#DejaVuSans-31" x="83.789062"/>
       <use xlink:href="#DejaVuSans-37" x="147.412109"/>
      </g>
     </g>
    </g>
    <g id="ytick_3">
     <g id="line2d_15">
      <path d="M 53.03 204.431232 
L 450 204.431232 
" clip-path="url(#p9089345fac)" style="fill: none; stroke: #b0b0b0; stroke-width: 0.8; stroke-linecap: square"/>
     </g>
     <g id="line2d_16">
      <g>
       <use xlink:href="#mf4626c89bf" x="53.03" y="204.431232" style="stroke: #000000; stroke-width: 0.8"/>
      </g>
     </g>
     <g id="text_9">
      <!-- −16 -->
      <g transform="translate(24.925313 208.23045) scale(0.1 -0.1)">
       <defs>
        <path id="DejaVuSans-36" d="M 2113 2584 
Q 1688 2584 1439 2293 
Q 1191 2003 1191 1497 
Q 1191 994 1439 701 
Q 1688 409 2113 409 
Q 2538 409 2786 701 
Q 3034 994 3034 1497 
Q 3034 2003 2786 2293 
Q 2538 2584 2113 2584 
z
M 3366 4563 
L 3366 3988 
Q 3128 4100 2886 4159 
Q 2644 4219 2406 4219 
Q 1781 4219 1451 3797 
Q 1122 3375 1075 2522 
Q 1259 2794 1537 2939 
Q 1816 3084 2150 3084 
Q 2853 3084 3261 2657 
Q 3669 2231 3669 1497 
Q 3669 778 3244 343 
Q 2819 -91 2113 -91 
Q 1303 -91 875 529 
Q 447 1150 447 2328 
Q 447 3434 972 4092 
Q 1497 4750 2381 4750 
Q 2619 4750 2861 4703 
Q 3103 4656 3366 4563 
z
" transform="scale(0.015625)"/>
       </defs>
       <use xlink:href="#DejaVuSans-2212"/>
       <use xlink:href="#DejaVuSans-31" x="83.789062"/>
       <use xlink:href="#DejaVuSans-36" x="147.412109"/>
      </g>
     </g>
    </g>
    <g id="ytick_4">
     <g id="line2d_17">
      <path d="M 53.03 159.096169 
L 450 159.096169 
" clip-path="url(#p9089345fac)" style="fill: none; stroke: #b0b0b0; stroke-width: 0.8; stroke-linecap: square"/>
     </g>
     <g id="line2d_18">
      <g>
       <use xlink:href="#mf4626c89bf" x="53.03" y="159.096169" style="stroke: #000000; stroke-width: 0.8"/>
      </g>
     </g>
     <g id="text_10">
      <!-- −15 -->
      <g transform="translate(24.925313 162.895388) scale(0.1 -0.1)">
       <use xlink:href="#DejaVuSans-2212"/>
       <use xlink:href="#DejaVuSans-31" x="83.789062"/>
       <use xlink:href="#DejaVuSans-35" x="147.412109"/>
      </g>
     </g>
    </g>
    <g id="ytick_5">
     <g id="line2d_19">
      <path d="M 53.03 113.761106 
L 450 113.761106 
" clip-path="url(#p9089345fac)" style="fill: none; stroke: #b0b0b0; stroke-width: 0.8; stroke-linecap: square"/>
     </g>
     <g id="line2d_20">
      <g>
       <use xlink:href="#mf4626c89bf" x="53.03" y="113.761106" style="stroke: #000000; stroke-width: 0.8"/>
      </g>
     </g>
     <g id="text_11">
      <!-- −14 -->
      <g transform="translate(24.925313 117.560325) scale(0.1 -0.1)">
       <defs>
        <path id="DejaVuSans-34" d="M 2419 4116 
L 825 1625 
L 2419 1625 
L 2419 4116 
z
M 2253 4666 
L 3047 4666 
L 3047 1625 
L 3713 1625 
L 3713 1100 
L 3047 1100 
L 3047 0 
L 2419 0 
L 2419 1100 
L 313 1100 
L 313 1709 
L 2253 4666 
z
" transform="scale(0.015625)"/>
       </defs>
       <use xlink:href="#DejaVuSans-2212"/>
       <use xlink:href="#DejaVuSans-31" x="83.789062"/>
       <use xlink:href="#DejaVuSans-34" x="147.412109"/>
      </g>
     </g>
    </g>
    <g id="ytick_6">
     <g id="line2d_21">
      <path d="M 53.03 68.426043 
L 450 68.426043 
" clip-path="url(#p9089345fac)" style="fill: none; stroke: #b0b0b0; stroke-width: 0.8; stroke-linecap: square"/>
     </g>
     <g id="line2d_22">
      <g>
       <use xlink:href="#mf4626c89bf" x="53.03" y="68.426043" style="stroke: #000000; stroke-width: 0.8"/>
      </g>
     </g>
     <g id="text_12">
      <!-- −13 -->
      <g transform="translate(24.925313 72.225262) scale(0.1 -0.1)">
       <defs>
        <path id="DejaVuSans-33" d="M 2597 2516 
Q 3050 2419 3304 2112 
Q 3559 1806 3559 1356 
Q 3559 666 3084 287 
Q 2609 -91 1734 -91 
Q 1441 -91 1130 -33 
Q 819 25 488 141 
L 488 750 
Q 750 597 1062 519 
Q 1375 441 1716 441 
Q 2309 441 2620 675 
Q 2931 909 2931 1356 
Q 2931 1769 2642 2001 
Q 2353 2234 1838 2234 
L 1294 2234 
L 1294 2753 
L 1863 2753 
Q 2328 2753 2575 2939 
Q 2822 3125 2822 3475 
Q 2822 3834 2567 4026 
Q 2313 4219 1838 4219 
Q 1578 4219 1281 4162 
Q 984 4106 628 3988 
L 628 4550 
Q 988 4650 1302 4700 
Q 1616 4750 1894 4750 
Q 2613 4750 3031 4423 
Q 3450 4097 3450 3541 
Q 3450 3153 3228 2886 
Q 3006 2619 2597 2516 
z
" transform="scale(0.015625)"/>
       </defs>
       <use xlink:href="#DejaVuSans-2212"/>
       <use xlink:href="#DejaVuSans-31" x="83.789062"/>
       <use xlink:href="#DejaVuSans-33" x="147.412109"/>
      </g>
     </g>
    </g>
    <g id="ytick_7">
     <g id="line2d_23">
      <path d="M 53.03 23.09098 
L 450 23.09098 
" clip-path="url(#p9089345fac)" style="fill: none; stroke: #b0b0b0; stroke-width: 0.8; stroke-linecap: square"/>
     </g>
     <g id="line2d_24">
      <g>
       <use xlink:href="#mf4626c89bf" x="53.03" y="23.09098" style="stroke: #000000; stroke-width: 0.8"/>
      </g>
     </g>
     <g id="text_13">
      <!-- −12 -->
      <g transform="translate(24.925313 26.890199) scale(0.1 -0.1)">
       <defs>
        <path id="DejaVuSans-32" d="M 1228 531 
L 3431 531 
L 3431 0 
L 469 0 
L 469 531 
Q 828 903 1448 1529 
Q 2069 2156 2228 2338 
Q 2531 2678 2651 2914 
Q 2772 3150 2772 3378 
Q 2772 3750 2511 3984 
Q 2250 4219 1831 4219 
Q 1534 4219 1204 4116 
Q 875 4013 500 3803 
L 500 4441 
Q 881 4594 1212 4672 
Q 1544 4750 1819 4750 
Q 2544 4750 2975 4387 
Q 3406 4025 3406 3419 
Q 3406 3131 3298 2873 
Q 3191 2616 2906 2266 
Q 2828 2175 2409 1742 
Q 1991 1309 1228 531 
z
" transform="scale(0.015625)"/>
       </defs>
       <use xlink:href="#DejaVuSans-2212"/>
       <use xlink:href="#DejaVuSans-31" x="83.789062"/>
       <use xlink:href="#DejaVuSans-32" x="147.412109"/>
      </g>
     </g>
    </g>
    <g id="text_14">
     <!-- MSE [dB] -->
     <g transform="translate(18.845625 179.962969) rotate(-90) scale(0.1 -0.1)">
      <defs>
       <path id="DejaVuSans-4d" d="M 628 4666 
L 1569 4666 
L 2759 1491 
L 3956 4666 
L 4897 4666 
L 4897 0 
L 4281 0 
L 4281 4097 
L 3078 897 
L 2444 897 
L 1241 4097 
L 1241 0 
L 628 0 
L 628 4666 
z
" transform="scale(0.015625)"/>
       <path id="DejaVuSans-45" d="M 628 4666 
L 3578 4666 
L 3578 4134 
L 1259 4134 
L 1259 2753 
L 3481 2753 
L 3481 2222 
L 1259 2222 
L 1259 531 
L 3634 531 
L 3634 0 
L 628 0 
L 628 4666 
z
" transform="scale(0.015625)"/>
      </defs>
      <use xlink:href="#DejaVuSans-4d"/>
      <use xlink:href="#DejaVuSans-53" x="86.279297"/>
      <use xlink:href="#DejaVuSans-45" x="149.755859"/>
      <use xlink:href="#DejaVuSans-20" x="212.939453"/>
      <use xlink:href="#DejaVuSans-5b" x="244.726562"/>
      <use xlink:href="#DejaVuSans-64" x="283.740234"/>
      <use xlink:href="#DejaVuSans-42" x="347.216797"/>
      <use xlink:href="#DejaVuSans-5d" x="415.820312"/>
     </g>
    </g>
   </g>
   <g id="line2d_25">
    <path d="M 431.955909 27.044119 
L 412.962119 26.661057 
L 393.968329 28.499751 
L 374.97456 28.745152 
L 355.980776 32.319899 
L 336.987 38.854765 
L 317.993224 48.843969 
L 298.999444 64.350809 
L 280.005662 85.726396 
L 261.011885 115.84693 
L 242.018105 149.249164 
L 223.024329 170.575117 
L 204.030539 157.65208 
L 185.036762 98.894099 
L 166.042986 33.116156 
L 147.049196 26.566892 
L 128.05542 25.309189 
L 109.061643 25.864195 
L 90.067867 26.314573 
L 71.074091 25.594842 
" clip-path="url(#p9089345fac)" style="fill: none; stroke: #1f77b4; stroke-width: 1.5; stroke-linecap: square"/>
   </g>
   <g id="line2d_26">
    <path d="M 431.955909 24.598036 
L 412.962119 24.628292 
L 393.968329 26.67528 
L 374.97456 29.211636 
L 355.980776 32.636496 
L 336.987 37.059947 
L 317.993224 45.401747 
L 298.999444 60.141754 
L 280.005662 82.946013 
L 261.011885 113.686979 
L 242.018105 145.326043 
L 223.024329 166.28265 
L 204.030539 150.594215 
L 185.036762 65.521196 
L 166.042986 27.169719 
L 147.049196 24.956227 
L 128.05542 24.574749 
L 109.061643 24.207154 
L 90.067867 24.110909 
L 71.074091 25.63293 
" clip-path="url(#p9089345fac)" style="fill: none; stroke-dasharray: 5.55,2.4; stroke-dashoffset: 0; stroke: #ff7f0e; stroke-width: 1.5"/>
    <defs>
     <path id="m1511a7f876" d="M 0 3 
C 0.795609 3 1.55874 2.683901 2.12132 2.12132 
C 2.683901 1.55874 3 0.795609 3 0 
C 3 -0.795609 2.683901 -1.55874 2.12132 -2.12132 
C 1.55874 -2.683901 0.795609 -3 0 -3 
C -0.795609 -3 -1.55874 -2.683901 -2.12132 -2.12132 
C -2.683901 -1.55874 -3 -0.795609 -3 0 
C -3 0.795609 -2.683901 1.55874 -2.12132 2.12132 
C -1.55874 2.683901 -0.795609 3 0 3 
z
" style="stroke: #ff7f0e"/>
    </defs>
    <g clip-path="url(#p9089345fac)">
     <use xlink:href="#m1511a7f876" x="431.955909" y="24.598036" style="fill: #ff7f0e; stroke: #ff7f0e"/>
     <use xlink:href="#m1511a7f876" x="412.962119" y="24.628292" style="fill: #ff7f0e; stroke: #ff7f0e"/>
     <use xlink:href="#m1511a7f876" x="393.968329" y="26.67528" style="fill: #ff7f0e; stroke: #ff7f0e"/>
     <use xlink:href="#m1511a7f876" x="374.97456" y="29.211636" style="fill: #ff7f0e; stroke: #ff7f0e"/>
     <use xlink:href="#m1511a7f876" x="355.980776" y="32.636496" style="fill: #ff7f0e; stroke: #ff7f0e"/>
     <use xlink:href="#m1511a7f876" x="336.987" y="37.059947" style="fill: #ff7f0e; stroke: #ff7f0e"/>
     <use xlink:href="#m1511a7f876" x="317.993224" y="45.401747" style="fill: #ff7f0e; stroke: #ff7f0e"/>
     <use xlink:href="#m1511a7f876" x="298.999444" y="60.141754" style="fill: #ff7f0e; stroke: #ff7f0e"/>
     <use xlink:href="#m1511a7f876" x="280.005662" y="82.946013" style="fill: #ff7f0e; stroke: #ff7f0e"/>
     <use xlink:href="#m1511a7f876" x="261.011885" y="113.686979" style="fill: #ff7f0e; stroke: #ff7f0e"/>
     <use xlink:href="#m1511a7f876" x="242.018105" y="145.326043" style="fill: #ff7f0e; stroke: #ff7f0e"/>
     <use xlink:href="#m1511a7f876" x="223.024329" y="166.28265" style="fill: #ff7f0e; stroke: #ff7f0e"/>
     <use xlink:href="#m1511a7f876" x="204.030539" y="150.594215" style="fill: #ff7f0e; stroke: #ff7f0e"/>
     <use xlink:href="#m1511a7f876" x="185.036762" y="65.521196" style="fill: #ff7f0e; stroke: #ff7f0e"/>
     <use xlink:href="#m1511a7f876" x="166.042986" y="27.169719" style="fill: #ff7f0e; stroke: #ff7f0e"/>
     <use xlink:href="#m1511a7f876" x="147.049196" y="24.956227" style="fill: #ff7f0e; stroke: #ff7f0e"/>
     <use xlink:href="#m1511a7f876" x="128.05542" y="24.574749" style="fill: #ff7f0e; stroke: #ff7f0e"/>
     <use xlink:href="#m1511a7f876" x="109.061643" y="24.207154" style="fill: #ff7f0e; stroke: #ff7f0e"/>
     <use xlink:href="#m1511a7f876" x="90.067867" y="24.110909" style="fill: #ff7f0e; stroke: #ff7f0e"/>
     <use xlink:href="#m1511a7f876" x="71.074091" y="25.63293" style="fill: #ff7f0e; stroke: #ff7f0e"/>
    </g>
   </g>
   <g id="line2d_27">
    <path d="M 431.955909 28.810912 
L 412.962119 29.856937 
L 393.968329 33.726329 
L 374.97456 38.972883 
L 355.980776 48.319962 
L 336.987 64.768285 
L 317.993224 90.962227 
L 298.999444 129.441793 
L 280.005662 176.451084 
L 261.011885 236.783377 
L 242.018105 282.051253 
L 223.024329 290.329091 
L 204.030539 240.983474 
L 185.036762 114.384553 
L 166.042986 28.210985 
L 147.049196 26.738967 
L 128.05542 25.974877 
L 109.061643 25.423329 
L 90.067867 25.489824 
L 71.074091 26.8899 
" clip-path="url(#p9089345fac)" style="fill: none; stroke: #2ca02c; stroke-width: 1.5; stroke-linecap: square"/>
   </g>
   <g id="line2d_28">
    <path d="M 431.955909 26.703085 
L 412.962119 28.743203 
L 393.968329 31.273738 
L 374.97456 37.383058 
L 355.980776 46.880161 
L 336.987 63.242813 
L 317.993224 88.338918 
L 298.999444 121.123642 
L 280.005662 165.94517 
L 261.011885 207.291182 
L 242.018105 233.918 
L 223.024329 223.798466 
L 204.030539 155.916386 
L 185.036762 65.061642 
L 166.042986 25.779445 
L 147.049196 25.795282 
L 128.05542 25.578964 
L 109.061643 24.839375 
L 90.067867 25.219519 
L 71.074091 25.168548 
" clip-path="url(#p9089345fac)" style="fill: none; stroke-dasharray: 5.55,2.4; stroke-dashoffset: 0; stroke: #d62728; stroke-width: 1.5"/>
    <defs>
     <path id="m6f92f62371" d="M 0 3 
C 0.795609 3 1.55874 2.683901 2.12132 2.12132 
C 2.683901 1.55874 3 0.795609 3 0 
C 3 -0.795609 2.683901 -1.55874 2.12132 -2.12132 
C 1.55874 -2.683901 0.795609 -3 0 -3 
C -0.795609 -3 -1.55874 -2.683901 -2.12132 -2.12132 
C -2.683901 -1.55874 -3 -0.795609 -3 0 
C -3 0.795609 -2.683901 1.55874 -2.12132 2.12132 
C -1.55874 2.683901 -0.795609 3 0 3 
z
" style="stroke: #d62728"/>
    </defs>
    <g clip-path="url(#p9089345fac)">
     <use xlink:href="#m6f92f62371" x="431.955909" y="26.703085" style="fill: #d62728; stroke: #d62728"/>
     <use xlink:href="#m6f92f62371" x="412.962119" y="28.743203" style="fill: #d62728; stroke: #d62728"/>
     <use xlink:href="#m6f92f62371" x="393.968329" y="31.273738" style="fill: #d62728; stroke: #d62728"/>
     <use xlink:href="#m6f92f62371" x="374.97456" y="37.383058" style="fill: #d62728; stroke: #d62728"/>
     <use xlink:href="#m6f92f62371" x="355.980776" y="46.880161" style="fill: #d62728; stroke: #d62728"/>
     <use xlink:href="#m6f92f62371" x="336.987" y="63.242813" style="fill: #d62728; stroke: #d62728"/>
     <use xlink:href="#m6f92f62371" x="317.993224" y="88.338918" style="fill: #d62728; stroke: #d62728"/>
     <use xlink:href="#m6f92f62371" x="298.999444" y="121.123642" style="fill: #d62728; stroke: #d62728"/>
     <use xlink:href="#m6f92f62371" x="280.005662" y="165.94517" style="fill: #d62728; stroke: #d62728"/>
     <use xlink:href="#m6f92f62371" x="261.011885" y="207.291182" style="fill: #d62728; stroke: #d62728"/>
     <use xlink:href="#m6f92f62371" x="242.018105" y="233.918" style="fill: #d62728; stroke: #d62728"/>
     <use xlink:href="#m6f92f62371" x="223.024329" y="223.798466" style="fill: #d62728; stroke: #d62728"/>
     <use xlink:href="#m6f92f62371" x="204.030539" y="155.916386" style="fill: #d62728; stroke: #d62728"/>
     <use xlink:href="#m6f92f62371" x="185.036762" y="65.061642" style="fill: #d62728; stroke: #d62728"/>
     <use xlink:href="#m6f92f62371" x="166.042986" y="25.779445" style="fill: #d62728; stroke: #d62728"/>
     <use xlink:href="#m6f92f62371" x="147.049196" y="25.795282" style="fill: #d62728; stroke: #d62728"/>
     <use xlink:href="#m6f92f62371" x="128.05542" y="25.578964" style="fill: #d62728; stroke: #d62728"/>
     <use xlink:href="#m6f92f62371" x="109.061643" y="24.839375" style="fill: #d62728; stroke: #d62728"/>
     <use xlink:href="#m6f92f62371" x="90.067867" y="25.219519" style="fill: #d62728; stroke: #d62728"/>
     <use xlink:href="#m6f92f62371" x="71.074091" y="25.168548" style="fill: #d62728; stroke: #d62728"/>
    </g>
   </g>
   <g id="line2d_29">
    <path d="M 431.955909 26.985579 
L 412.962119 26.924574 
L 393.968329 28.375667 
L 374.97456 30.24497 
L 355.980776 32.724015 
L 336.987 39.501905 
L 317.993224 48.441496 
L 298.999444 63.929701 
L 280.005662 84.666925 
L 261.011885 115.820643 
L 242.018105 149.66958 
L 223.024329 170.867385 
L 204.030539 157.387137 
L 185.036762 98.281893 
L 166.042986 34.18276 
L 147.049196 26.521798 
L 128.05542 26.702736 
L 109.061643 27.529171 
L 90.067867 26.341508 
L 71.074091 27.398818 
" clip-path="url(#p9089345fac)" style="fill: none; stroke-dasharray: 7.5,15; stroke-dashoffset: 0; stroke: #9467bd; stroke-width: 1.5"/>
    <defs>
     <path id="mf8fd6f2858" d="M -0 4.242641 
L 4.242641 0 
L 0 -4.242641 
L -4.242641 -0 
z
" style="stroke: #9467bd; stroke-linejoin: miter"/>
    </defs>
    <g clip-path="url(#p9089345fac)">
     <use xlink:href="#mf8fd6f2858" x="431.955909" y="26.985579" style="fill: #9467bd; stroke: #9467bd; stroke-linejoin: miter"/>
     <use xlink:href="#mf8fd6f2858" x="412.962119" y="26.924574" style="fill: #9467bd; stroke: #9467bd; stroke-linejoin: miter"/>
     <use xlink:href="#mf8fd6f2858" x="393.968329" y="28.375667" style="fill: #9467bd; stroke: #9467bd; stroke-linejoin: miter"/>
     <use xlink:href="#mf8fd6f2858" x="374.97456" y="30.24497" style="fill: #9467bd; stroke: #9467bd; stroke-linejoin: miter"/>
     <use xlink:href="#mf8fd6f2858" x="355.980776" y="32.724015" style="fill: #9467bd; stroke: #9467bd; stroke-linejoin: miter"/>
     <use xlink:href="#mf8fd6f2858" x="336.987" y="39.501905" style="fill: #9467bd; stroke: #9467bd; stroke-linejoin: miter"/>
     <use xlink:href="#mf8fd6f2858" x="317.993224" y="48.441496" style="fill: #9467bd; stroke: #9467bd; stroke-linejoin: miter"/>
     <use xlink:href="#mf8fd6f2858" x="298.999444" y="63.929701" style="fill: #9467bd; stroke: #9467bd; stroke-linejoin: miter"/>
     <use xlink:href="#mf8fd6f2858" x="280.005662" y="84.666925" style="fill: #9467bd; stroke: #9467bd; stroke-linejoin: miter"/>
     <use xlink:href="#mf8fd6f2858" x="261.011885" y="115.820643" style="fill: #9467bd; stroke: #9467bd; stroke-linejoin: miter"/>
     <use xlink:href="#mf8fd6f2858" x="242.018105" y="149.66958" style="fill: #9467bd; stroke: #9467bd; stroke-linejoin: miter"/>
     <use xlink:href="#mf8fd6f2858" x="223.024329" y="170.867385" style="fill: #9467bd; stroke: #9467bd; stroke-linejoin: miter"/>
     <use xlink:href="#mf8fd6f2858" x="204.030539" y="157.387137" style="fill: #9467bd; stroke: #9467bd; stroke-linejoin: miter"/>
     <use xlink:href="#mf8fd6f2858" x="185.036762" y="98.281893" style="fill: #9467bd; stroke: #9467bd; stroke-linejoin: miter"/>
     <use xlink:href="#mf8fd6f2858" x="166.042986" y="34.18276" style="fill: #9467bd; stroke: #9467bd; stroke-linejoin: miter"/>
     <use xlink:href="#mf8fd6f2858" x="147.049196" y="26.521798" style="fill: #9467bd; stroke: #9467bd; stroke-linejoin: miter"/>
     <use xlink:href="#mf8fd6f2858" x="128.05542" y="26.702736" style="fill: #9467bd; stroke: #9467bd; stroke-linejoin: miter"/>
     <use xlink:href="#mf8fd6f2858" x="109.061643" y="27.529171" style="fill: #9467bd; stroke: #9467bd; stroke-linejoin: miter"/>
     <use xlink:href="#mf8fd6f2858" x="90.067867" y="26.341508" style="fill: #9467bd; stroke: #9467bd; stroke-linejoin: miter"/>
     <use xlink:href="#mf8fd6f2858" x="71.074091" y="27.398818" style="fill: #9467bd; stroke: #9467bd; stroke-linejoin: miter"/>
    </g>
   </g>
   <g id="patch_5">
    <path d="M 53.03 303.64 
L 53.03 10.8 
" style="fill: none; stroke: #000000; stroke-width: 0.8; stroke-linejoin: miter; stroke-linecap: square"/>
   </g>
   <g id="patch_6">
    <path d="M 450 303.64 
L 450 10.8 
" style="fill: none; stroke: #000000; stroke-width: 0.8; stroke-linejoin: miter; stroke-linecap: square"/>
   </g>
   <g id="patch_7">
    <path d="M 53.03 303.64 
L 450 303.64 
" style="fill: none; stroke: #000000; stroke-width: 0.8; stroke-linejoin: miter; stroke-linecap: square"/>
   </g>
   <g id="patch_8">
    <path d="M 53.03 10.8 
L 450 10.8 
" style="fill: none; stroke: #000000; stroke-width: 0.8; stroke-linejoin: miter; stroke-linecap: square"/>
   </g>
   <g id="legend_1">
    <g id="patch_9">
     <path d="M 275.2 298.64 
L 443 298.64 
Q 445 298.64 445 296.64 
L 445 209.468125 
Q 445 207.468125 443 207.468125 
L 275.2 207.468125 
Q 273.2 207.468125 273.2 209.468125 
L 273.2 296.64 
Q 273.2 298.64 275.2 298.64 
z
" style="fill: #ffffff; opacity: 0.8; stroke: #cccccc; stroke-linejoin: miter"/>
    </g>
    <g id="line2d_30">
     <path d="M 277.2 215.566562 
L 287.2 215.566562 
L 297.2 215.566562 
" style="fill: none; stroke: #1f77b4; stroke-width: 1.5; stroke-linecap: square"/>
    </g>
    <g id="text_15">
     <!-- LBCRB @ $\rho$=0 -->
     <g transform="translate(305.2 219.066562) scale(0.1 -0.1)">
      <defs>
       <path id="DejaVuSans-4c" d="M 628 4666 
L 1259 4666 
L 1259 531 
L 3531 531 
L 3531 0 
L 628 0 
L 628 4666 
z
" transform="scale(0.015625)"/>
       <path id="DejaVuSans-43" d="M 4122 4306 
L 4122 3641 
Q 3803 3938 3442 4084 
Q 3081 4231 2675 4231 
Q 1875 4231 1450 3742 
Q 1025 3253 1025 2328 
Q 1025 1406 1450 917 
Q 1875 428 2675 428 
Q 3081 428 3442 575 
Q 3803 722 4122 1019 
L 4122 359 
Q 3791 134 3420 21 
Q 3050 -91 2638 -91 
Q 1578 -91 968 557 
Q 359 1206 359 2328 
Q 359 3453 968 4101 
Q 1578 4750 2638 4750 
Q 3056 4750 3426 4639 
Q 3797 4528 4122 4306 
z
" transform="scale(0.015625)"/>
       <path id="DejaVuSans-40" d="M 2381 1678 
Q 2381 1231 2603 976 
Q 2825 722 3213 722 
Q 3597 722 3817 978 
Q 4038 1234 4038 1678 
Q 4038 2116 3813 2373 
Q 3588 2631 3206 2631 
Q 2828 2631 2604 2375 
Q 2381 2119 2381 1678 
z
M 4084 744 
Q 3897 503 3655 389 
Q 3413 275 3091 275 
Q 2553 275 2217 664 
Q 1881 1053 1881 1678 
Q 1881 2303 2218 2693 
Q 2556 3084 3091 3084 
Q 3413 3084 3656 2967 
Q 3900 2850 4084 2613 
L 4084 3022 
L 4531 3022 
L 4531 722 
Q 4988 791 5245 1139 
Q 5503 1488 5503 2041 
Q 5503 2375 5404 2669 
Q 5306 2963 5106 3213 
Q 4781 3622 4314 3839 
Q 3847 4056 3297 4056 
Q 2913 4056 2559 3954 
Q 2206 3853 1906 3653 
Q 1416 3334 1139 2817 
Q 863 2300 863 1697 
Q 863 1200 1042 765 
Q 1222 331 1563 0 
Q 1891 -325 2322 -495 
Q 2753 -666 3244 -666 
Q 3647 -666 4036 -530 
Q 4425 -394 4750 -141 
L 5031 -488 
Q 4641 -791 4180 -952 
Q 3719 -1113 3244 -1113 
Q 2666 -1113 2153 -908 
Q 1641 -703 1241 -313 
Q 841 78 631 592 
Q 422 1106 422 1697 
Q 422 2266 634 2781 
Q 847 3297 1241 3688 
Q 1644 4084 2172 4295 
Q 2700 4506 3291 4506 
Q 3953 4506 4520 4234 
Q 5088 3963 5472 3463 
Q 5706 3156 5829 2797 
Q 5953 2438 5953 2053 
Q 5953 1231 5456 756 
Q 4959 281 4084 263 
L 4084 744 
z
" transform="scale(0.015625)"/>
       <path id="DejaVuSans-Oblique-3c1" d="M 1203 2875 
Q 1453 3194 1981 3475 
Q 2188 3584 2756 3584 
Q 3394 3584 3694 3078 
Q 3994 2572 3834 1747 
Q 3672 922 3175 415 
Q 2678 -91 2041 -91 
Q 1656 -91 1409 63 
Q 1163 213 1044 525 
L 681 -1331 
L 103 -1331 
L 697 1716 
Q 838 2438 1203 2875 
z
M 3238 1747 
Q 3359 2381 3169 2744 
Q 2978 3103 2522 3103 
Q 2066 3103 1734 2744 
Q 1403 2381 1281 1747 
Q 1156 1113 1347 750 
Q 1538 391 1994 391 
Q 2450 391 2781 750 
Q 3113 1113 3238 1747 
z
" transform="scale(0.015625)"/>
       <path id="DejaVuSans-3d" d="M 678 2906 
L 4684 2906 
L 4684 2381 
L 678 2381 
L 678 2906 
z
M 678 1631 
L 4684 1631 
L 4684 1100 
L 678 1100 
L 678 1631 
z
" transform="scale(0.015625)"/>
      </defs>
      <use xlink:href="#DejaVuSans-4c" transform="translate(0 0.78125)"/>
      <use xlink:href="#DejaVuSans-42" transform="translate(55.712891 0.78125)"/>
      <use xlink:href="#DejaVuSans-43" transform="translate(124.316406 0.78125)"/>
      <use xlink:href="#DejaVuSans-52" transform="translate(194.140625 0.78125)"/>
      <use xlink:href="#DejaVuSans-42" transform="translate(263.623047 0.78125)"/>
      <use xlink:href="#DejaVuSans-20" transform="translate(332.226562 0.78125)"/>
      <use xlink:href="#DejaVuSans-40" transform="translate(364.013672 0.78125)"/>
      <use xlink:href="#DejaVuSans-20" transform="translate(464.013672 0.78125)"/>
      <use xlink:href="#DejaVuSans-Oblique-3c1" transform="translate(495.800781 0.78125)"/>
      <use xlink:href="#DejaVuSans-3d" transform="translate(559.277344 0.78125)"/>
      <use xlink:href="#DejaVuSans-30" transform="translate(643.066406 0.78125)"/>
     </g>
    </g>
    <g id="line2d_31">
     <path d="M 277.2 230.265 
L 287.2 230.265 
L 297.2 230.265 
" style="fill: none; stroke-dasharray: 5.55,2.4; stroke-dashoffset: 0; stroke: #ff7f0e; stroke-width: 1.5"/>
     <g>
      <use xlink:href="#m1511a7f876" x="287.2" y="230.265" style="fill: #ff7f0e; stroke: #ff7f0e"/>
     </g>
    </g>
    <g id="text_16">
     <!-- MMSE @$\rho$=0 -->
     <g transform="translate(305.2 233.765) scale(0.1 -0.1)">
      <use xlink:href="#DejaVuSans-4d" transform="translate(0 0.78125)"/>
      <use xlink:href="#DejaVuSans-4d" transform="translate(86.279297 0.78125)"/>
      <use xlink:href="#DejaVuSans-53" transform="translate(172.558594 0.78125)"/>
      <use xlink:href="#DejaVuSans-45" transform="translate(236.035156 0.78125)"/>
      <use xlink:href="#DejaVuSans-20" transform="translate(299.21875 0.78125)"/>
      <use xlink:href="#DejaVuSans-40" transform="translate(331.005859 0.78125)"/>
      <use xlink:href="#DejaVuSans-Oblique-3c1" transform="translate(431.005859 0.78125)"/>
      <use xlink:href="#DejaVuSans-3d" transform="translate(494.482422 0.78125)"/>
      <use xlink:href="#DejaVuSans-30" transform="translate(578.271484 0.78125)"/>
     </g>
    </g>
    <g id="line2d_32">
     <path d="M 277.2 244.963437 
L 287.2 244.963437 
L 297.2 244.963437 
" style="fill: none; stroke: #2ca02c; stroke-width: 1.5; stroke-linecap: square"/>
    </g>
    <g id="text_17">
     <!-- LBCRB @ $\rho$=0.9 -->
     <g transform="translate(305.2 248.463437) scale(0.1 -0.1)">
      <defs>
       <path id="DejaVuSans-2e" d="M 684 794 
L 1344 794 
L 1344 0 
L 684 0 
L 684 794 
z
" transform="scale(0.015625)"/>
       <path id="DejaVuSans-39" d="M 703 97 
L 703 672 
Q 941 559 1184 500 
Q 1428 441 1663 441 
Q 2288 441 2617 861 
Q 2947 1281 2994 2138 
Q 2813 1869 2534 1725 
Q 2256 1581 1919 1581 
Q 1219 1581 811 2004 
Q 403 2428 403 3163 
Q 403 3881 828 4315 
Q 1253 4750 1959 4750 
Q 2769 4750 3195 4129 
Q 3622 3509 3622 2328 
Q 3622 1225 3098 567 
Q 2575 -91 1691 -91 
Q 1453 -91 1209 -44 
Q 966 3 703 97 
z
M 1959 2075 
Q 2384 2075 2632 2365 
Q 2881 2656 2881 3163 
Q 2881 3666 2632 3958 
Q 2384 4250 1959 4250 
Q 1534 4250 1286 3958 
Q 1038 3666 1038 3163 
Q 1038 2656 1286 2365 
Q 1534 2075 1959 2075 
z
" transform="scale(0.015625)"/>
      </defs>
      <use xlink:href="#DejaVuSans-4c" transform="translate(0 0.78125)"/>
      <use xlink:href="#DejaVuSans-42" transform="translate(55.712891 0.78125)"/>
      <use xlink:href="#DejaVuSans-43" transform="translate(124.316406 0.78125)"/>
      <use xlink:href="#DejaVuSans-52" transform="translate(194.140625 0.78125)"/>
      <use xlink:href="#DejaVuSans-42" transform="translate(263.623047 0.78125)"/>
      <use xlink:href="#DejaVuSans-20" transform="translate(332.226562 0.78125)"/>
      <use xlink:href="#DejaVuSans-40" transform="translate(364.013672 0.78125)"/>
      <use xlink:href="#DejaVuSans-20" transform="translate(464.013672 0.78125)"/>
      <use xlink:href="#DejaVuSans-Oblique-3c1" transform="translate(495.800781 0.78125)"/>
      <use xlink:href="#DejaVuSans-3d" transform="translate(559.277344 0.78125)"/>
      <use xlink:href="#DejaVuSans-30" transform="translate(643.066406 0.78125)"/>
      <use xlink:href="#DejaVuSans-2e" transform="translate(706.689453 0.78125)"/>
      <use xlink:href="#DejaVuSans-39" transform="translate(738.476562 0.78125)"/>
     </g>
    </g>
    <g id="line2d_33">
     <path d="M 277.2 259.661875 
L 287.2 259.661875 
L 297.2 259.661875 
" style="fill: none; stroke-dasharray: 5.55,2.4; stroke-dashoffset: 0; stroke: #d62728; stroke-width: 1.5"/>
     <g>
      <use xlink:href="#m6f92f62371" x="287.2" y="259.661875" style="fill: #d62728; stroke: #d62728"/>
     </g>
    </g>
    <g id="text_18">
     <!-- MMSE @$\rho$=0.9 -->
     <g transform="translate(305.2 263.161875) scale(0.1 -0.1)">
      <use xlink:href="#DejaVuSans-4d" transform="translate(0 0.78125)"/>
      <use xlink:href="#DejaVuSans-4d" transform="translate(86.279297 0.78125)"/>
      <use xlink:href="#DejaVuSans-53" transform="translate(172.558594 0.78125)"/>
      <use xlink:href="#DejaVuSans-45" transform="translate(236.035156 0.78125)"/>
      <use xlink:href="#DejaVuSans-20" transform="translate(299.21875 0.78125)"/>
      <use xlink:href="#DejaVuSans-40" transform="translate(331.005859 0.78125)"/>
      <use xlink:href="#DejaVuSans-Oblique-3c1" transform="translate(431.005859 0.78125)"/>
      <use xlink:href="#DejaVuSans-3d" transform="translate(494.482422 0.78125)"/>
      <use xlink:href="#DejaVuSans-30" transform="translate(578.271484 0.78125)"/>
      <use xlink:href="#DejaVuSans-2e" transform="translate(641.894531 0.78125)"/>
      <use xlink:href="#DejaVuSans-39" transform="translate(673.681641 0.78125)"/>
     </g>
    </g>
    <g id="line2d_34">
     <path d="M 277.2 274.361875 
L 287.2 274.361875 
L 297.2 274.361875 
" style="fill: none; stroke-dasharray: 7.5,15; stroke-dashoffset: 0; stroke: #9467bd; stroke-width: 1.5"/>
     <g>
      <use xlink:href="#mf8fd6f2858" x="287.2" y="274.361875" style="fill: #9467bd; stroke: #9467bd; stroke-linejoin: miter"/>
     </g>
    </g>
    <g id="text_19">
     <!-- LBCRB (True Score) @ $\rho$=0 -->
     <g transform="translate(305.2 277.861875) scale(0.1 -0.1)">
      <defs>
       <path id="DejaVuSans-28" d="M 1984 4856 
Q 1566 4138 1362 3434 
Q 1159 2731 1159 2009 
Q 1159 1288 1364 580 
Q 1569 -128 1984 -844 
L 1484 -844 
Q 1016 -109 783 600 
Q 550 1309 550 2009 
Q 550 2706 781 3412 
Q 1013 4119 1484 4856 
L 1984 4856 
z
" transform="scale(0.015625)"/>
       <path id="DejaVuSans-54" d="M -19 4666 
L 3928 4666 
L 3928 4134 
L 2272 4134 
L 2272 0 
L 1638 0 
L 1638 4134 
L -19 4134 
L -19 4666 
z
" transform="scale(0.015625)"/>
       <path id="DejaVuSans-72" d="M 2631 2963 
Q 2534 3019 2420 3045 
Q 2306 3072 2169 3072 
Q 1681 3072 1420 2755 
Q 1159 2438 1159 1844 
L 1159 0 
L 581 0 
L 581 3500 
L 1159 3500 
L 1159 2956 
Q 1341 3275 1631 3429 
Q 1922 3584 2338 3584 
Q 2397 3584 2469 3576 
Q 2541 3569 2628 3553 
L 2631 2963 
z
" transform="scale(0.015625)"/>
       <path id="DejaVuSans-75" d="M 544 1381 
L 544 3500 
L 1119 3500 
L 1119 1403 
Q 1119 906 1312 657 
Q 1506 409 1894 409 
Q 2359 409 2629 706 
Q 2900 1003 2900 1516 
L 2900 3500 
L 3475 3500 
L 3475 0 
L 2900 0 
L 2900 538 
Q 2691 219 2414 64 
Q 2138 -91 1772 -91 
Q 1169 -91 856 284 
Q 544 659 544 1381 
z
M 1991 3584 
L 1991 3584 
z
" transform="scale(0.015625)"/>
       <path id="DejaVuSans-65" d="M 3597 1894 
L 3597 1613 
L 953 1613 
Q 991 1019 1311 708 
Q 1631 397 2203 397 
Q 2534 397 2845 478 
Q 3156 559 3463 722 
L 3463 178 
Q 3153 47 2828 -22 
Q 2503 -91 2169 -91 
Q 1331 -91 842 396 
Q 353 884 353 1716 
Q 353 2575 817 3079 
Q 1281 3584 2069 3584 
Q 2775 3584 3186 3129 
Q 3597 2675 3597 1894 
z
M 3022 2063 
Q 3016 2534 2758 2815 
Q 2500 3097 2075 3097 
Q 1594 3097 1305 2825 
Q 1016 2553 972 2059 
L 3022 2063 
z
" transform="scale(0.015625)"/>
       <path id="DejaVuSans-63" d="M 3122 3366 
L 3122 2828 
Q 2878 2963 2633 3030 
Q 2388 3097 2138 3097 
Q 1578 3097 1268 2742 
Q 959 2388 959 1747 
Q 959 1106 1268 751 
Q 1578 397 2138 397 
Q 2388 397 2633 464 
Q 2878 531 3122 666 
L 3122 134 
Q 2881 22 2623 -34 
Q 2366 -91 2075 -91 
Q 1284 -91 818 406 
Q 353 903 353 1747 
Q 353 2603 823 3093 
Q 1294 3584 2113 3584 
Q 2378 3584 2631 3529 
Q 2884 3475 3122 3366 
z
" transform="scale(0.015625)"/>
       <path id="DejaVuSans-6f" d="M 1959 3097 
Q 1497 3097 1228 2736 
Q 959 2375 959 1747 
Q 959 1119 1226 758 
Q 1494 397 1959 397 
Q 2419 397 2687 759 
Q 2956 1122 2956 1747 
Q 2956 2369 2687 2733 
Q 2419 3097 1959 3097 
z
M 1959 3584 
Q 2709 3584 3137 3096 
Q 3566 2609 3566 1747 
Q 3566 888 3137 398 
Q 2709 -91 1959 -91 
Q 1206 -91 779 398 
Q 353 888 353 1747 
Q 353 2609 779 3096 
Q 1206 3584 1959 3584 
z
" transform="scale(0.015625)"/>
       <path id="DejaVuSans-29" d="M 513 4856 
L 1013 4856 
Q 1481 4119 1714 3412 
Q 1947 2706 1947 2009 
Q 1947 1309 1714 600 
Q 1481 -109 1013 -844 
L 513 -844 
Q 928 -128 1133 580 
Q 1338 1288 1338 2009 
Q 1338 2731 1133 3434 
Q 928 4138 513 4856 
z
" transform="scale(0.015625)"/>
      </defs>
      <use xlink:href="#DejaVuSans-4c" transform="translate(0 0.125)"/>
      <use xlink:href="#DejaVuSans-42" transform="translate(55.712891 0.125)"/>
      <use xlink:href="#DejaVuSans-43" transform="translate(124.316406 0.125)"/>
      <use xlink:href="#DejaVuSans-52" transform="translate(194.140625 0.125)"/>
      <use xlink:href="#DejaVuSans-42" transform="translate(263.623047 0.125)"/>
      <use xlink:href="#DejaVuSans-20" transform="translate(332.226562 0.125)"/>
      <use xlink:href="#DejaVuSans-28" transform="translate(364.013672 0.125)"/>
      <use xlink:href="#DejaVuSans-54" transform="translate(403.027344 0.125)"/>
      <use xlink:href="#DejaVuSans-72" transform="translate(464.111328 0.125)"/>
      <use xlink:href="#DejaVuSans-75" transform="translate(505.224609 0.125)"/>
      <use xlink:href="#DejaVuSans-65" transform="translate(568.603516 0.125)"/>
      <use xlink:href="#DejaVuSans-20" transform="translate(630.126953 0.125)"/>
      <use xlink:href="#DejaVuSans-53" transform="translate(661.914062 0.125)"/>
      <use xlink:href="#DejaVuSans-63" transform="translate(725.390625 0.125)"/>
      <use xlink:href="#DejaVuSans-6f" transform="translate(780.371094 0.125)"/>
      <use xlink:href="#DejaVuSans-72" transform="translate(841.552734 0.125)"/>
      <use xlink:href="#DejaVuSans-65" transform="translate(882.666016 0.125)"/>
      <use xlink:href="#DejaVuSans-29" transform="translate(944.189453 0.125)"/>
      <use xlink:href="#DejaVuSans-20" transform="translate(983.203125 0.125)"/>
      <use xlink:href="#DejaVuSans-40" transform="translate(1014.990234 0.125)"/>
      <use xlink:href="#DejaVuSans-20" transform="translate(1114.990234 0.125)"/>
      <use xlink:href="#DejaVuSans-Oblique-3c1" transform="translate(1146.777344 0.125)"/>
      <use xlink:href="#DejaVuSans-3d" transform="translate(1210.253906 0.125)"/>
      <use xlink:href="#DejaVuSans-30" transform="translate(1294.042969 0.125)"/>
     </g>
    </g>
    <g id="patch_10">
     <path d="M 277.2 292.560312 
L 297.2 292.560312 
L 297.2 285.560312 
L 277.2 285.560312 
z
" style="fill: #ff0000; opacity: 0.5; stroke: #ff0000; stroke-linejoin: miter"/>
    </g>
    <g id="text_20">
     <!-- No Information Region -->
     <g transform="translate(305.2 292.560312) scale(0.1 -0.1)">
      <defs>
       <path id="DejaVuSans-49" d="M 628 4666 
L 1259 4666 
L 1259 0 
L 628 0 
L 628 4666 
z
" transform="scale(0.015625)"/>
       <path id="DejaVuSans-6e" d="M 3513 2113 
L 3513 0 
L 2938 0 
L 2938 2094 
Q 2938 2591 2744 2837 
Q 2550 3084 2163 3084 
Q 1697 3084 1428 2787 
Q 1159 2491 1159 1978 
L 1159 0 
L 581 0 
L 581 3500 
L 1159 3500 
L 1159 2956 
Q 1366 3272 1645 3428 
Q 1925 3584 2291 3584 
Q 2894 3584 3203 3211 
Q 3513 2838 3513 2113 
z
" transform="scale(0.015625)"/>
       <path id="DejaVuSans-66" d="M 2375 4863 
L 2375 4384 
L 1825 4384 
Q 1516 4384 1395 4259 
Q 1275 4134 1275 3809 
L 1275 3500 
L 2222 3500 
L 2222 3053 
L 1275 3053 
L 1275 0 
L 697 0 
L 697 3053 
L 147 3053 
L 147 3500 
L 697 3500 
L 697 3744 
Q 697 4328 969 4595 
Q 1241 4863 1831 4863 
L 2375 4863 
z
" transform="scale(0.015625)"/>
       <path id="DejaVuSans-6d" d="M 3328 2828 
Q 3544 3216 3844 3400 
Q 4144 3584 4550 3584 
Q 5097 3584 5394 3201 
Q 5691 2819 5691 2113 
L 5691 0 
L 5113 0 
L 5113 2094 
Q 5113 2597 4934 2840 
Q 4756 3084 4391 3084 
Q 3944 3084 3684 2787 
Q 3425 2491 3425 1978 
L 3425 0 
L 2847 0 
L 2847 2094 
Q 2847 2600 2669 2842 
Q 2491 3084 2119 3084 
Q 1678 3084 1418 2786 
Q 1159 2488 1159 1978 
L 1159 0 
L 581 0 
L 581 3500 
L 1159 3500 
L 1159 2956 
Q 1356 3278 1631 3431 
Q 1906 3584 2284 3584 
Q 2666 3584 2933 3390 
Q 3200 3197 3328 2828 
z
" transform="scale(0.015625)"/>
       <path id="DejaVuSans-61" d="M 2194 1759 
Q 1497 1759 1228 1600 
Q 959 1441 959 1056 
Q 959 750 1161 570 
Q 1363 391 1709 391 
Q 2188 391 2477 730 
Q 2766 1069 2766 1631 
L 2766 1759 
L 2194 1759 
z
M 3341 1997 
L 3341 0 
L 2766 0 
L 2766 531 
Q 2569 213 2275 61 
Q 1981 -91 1556 -91 
Q 1019 -91 701 211 
Q 384 513 384 1019 
Q 384 1609 779 1909 
Q 1175 2209 1959 2209 
L 2766 2209 
L 2766 2266 
Q 2766 2663 2505 2880 
Q 2244 3097 1772 3097 
Q 1472 3097 1187 3025 
Q 903 2953 641 2809 
L 641 3341 
Q 956 3463 1253 3523 
Q 1550 3584 1831 3584 
Q 2591 3584 2966 3190 
Q 3341 2797 3341 1997 
z
" transform="scale(0.015625)"/>
       <path id="DejaVuSans-74" d="M 1172 4494 
L 1172 3500 
L 2356 3500 
L 2356 3053 
L 1172 3053 
L 1172 1153 
Q 1172 725 1289 603 
Q 1406 481 1766 481 
L 2356 481 
L 2356 0 
L 1766 0 
Q 1100 0 847 248 
Q 594 497 594 1153 
L 594 3053 
L 172 3053 
L 172 3500 
L 594 3500 
L 594 4494 
L 1172 4494 
z
" transform="scale(0.015625)"/>
       <path id="DejaVuSans-69" d="M 603 3500 
L 1178 3500 
L 1178 0 
L 603 0 
L 603 3500 
z
M 603 4863 
L 1178 4863 
L 1178 4134 
L 603 4134 
L 603 4863 
z
" transform="scale(0.015625)"/>
       <path id="DejaVuSans-67" d="M 2906 1791 
Q 2906 2416 2648 2759 
Q 2391 3103 1925 3103 
Q 1463 3103 1205 2759 
Q 947 2416 947 1791 
Q 947 1169 1205 825 
Q 1463 481 1925 481 
Q 2391 481 2648 825 
Q 2906 1169 2906 1791 
z
M 3481 434 
Q 3481 -459 3084 -895 
Q 2688 -1331 1869 -1331 
Q 1566 -1331 1297 -1286 
Q 1028 -1241 775 -1147 
L 775 -588 
Q 1028 -725 1275 -790 
Q 1522 -856 1778 -856 
Q 2344 -856 2625 -561 
Q 2906 -266 2906 331 
L 2906 616 
Q 2728 306 2450 153 
Q 2172 0 1784 0 
Q 1141 0 747 490 
Q 353 981 353 1791 
Q 353 2603 747 3093 
Q 1141 3584 1784 3584 
Q 2172 3584 2450 3431 
Q 2728 3278 2906 2969 
L 2906 3500 
L 3481 3500 
L 3481 434 
z
" transform="scale(0.015625)"/>
      </defs>
      <use xlink:href="#DejaVuSans-4e"/>
      <use xlink:href="#DejaVuSans-6f" x="74.804688"/>
      <use xlink:href="#DejaVuSans-20" x="135.986328"/>
      <use xlink:href="#DejaVuSans-49" x="167.773438"/>
      <use xlink:href="#DejaVuSans-6e" x="197.265625"/>
      <use xlink:href="#DejaVuSans-66" x="260.644531"/>
      <use xlink:href="#DejaVuSans-6f" x="295.849609"/>
      <use xlink:href="#DejaVuSans-72" x="357.03125"/>
      <use xlink:href="#DejaVuSans-6d" x="396.394531"/>
      <use xlink:href="#DejaVuSans-61" x="493.806641"/>
      <use xlink:href="#DejaVuSans-74" x="555.085938"/>
      <use xlink:href="#DejaVuSans-69" x="594.294922"/>
      <use xlink:href="#DejaVuSans-6f" x="622.078125"/>
      <use xlink:href="#DejaVuSans-6e" x="683.259766"/>
      <use xlink:href="#DejaVuSans-20" x="746.638672"/>
      <use xlink:href="#DejaVuSans-52" x="778.425781"/>
      <use xlink:href="#DejaVuSans-65" x="843.408203"/>
      <use xlink:href="#DejaVuSans-67" x="904.931641"/>
      <use xlink:href="#DejaVuSans-69" x="968.408203"/>
      <use xlink:href="#DejaVuSans-6f" x="996.191406"/>
      <use xlink:href="#DejaVuSans-6e" x="1057.373047"/>
     </g>
    </g>
   </g>
  </g>
 </g>
 <defs>
  <clipPath id="p9089345fac">
   <rect x="53.03" y="10.8" width="396.97" height="292.84"/>
  </clipPath>
 </defs>
</svg>
